<?xml version="1.0" encoding="utf-8"?>
<!-- Generator: Adobe Illustrator 18.0.0, SVG Export Plug-In . SVG Version: 6.00 Build 0)  -->
<!DOCTYPE svg PUBLIC "-//W3C//DTD SVG 1.1//EN" "http://www.w3.org/Graphics/SVG/1.1/DTD/svg11.dtd">
<svg version="1.1" id="Layer_1" xmlns="http://www.w3.org/2000/svg" xmlns:xlink="http://www.w3.org/1999/xlink" x="0px" y="0px"
	 viewBox="0 0 30 380" enable-background="new 0 0 30 380" xml:space="preserve">
<g>
	<g>
		<path fill="#B2B2B2" d="M15,367.3c-2.8,0-5-2.2-5-5v-49.5c0-2.8,2.2-5,5-5c2.8,0,5,2.2,5,5v49.5C20,365,17.8,367.3,15,367.3z"/>
	</g>
	<g>
		<path fill="#B2B2B2" d="M15,374.5c-1.8,0-3.3-1.5-3.3-3.3v-49.5c0-1.8,1.5-3.3,3.3-3.3c1.8,0,3.3,1.5,3.3,3.3v49.5
			C18.3,373,16.8,374.5,15,374.5z"/>
	</g>
	<g opacity="0.7">
		<path fill="#CACAC9" d="M12.8,359.5c-0.3,0-0.6-0.2-0.6-0.6v-37.3c0-0.3,0.2-0.6,0.6-0.6c0.3,0,0.6,0.2,0.6,0.6v37.3
			C13.3,359.2,13.1,359.5,12.8,359.5z"/>
	</g>
	<g opacity="0.3">
		<path fill="#676767" d="M13.6,359.5c-0.3,0-0.6-0.2-0.6-0.6v-37.3c0-0.3,0.2-0.6,0.6-0.6c0.3,0,0.6,0.2,0.6,0.6v37.3
			C14.1,359.2,13.9,359.5,13.6,359.5z"/>
	</g>
	<g>
		<path fill="#B2B2B2" d="M19.5,372.4c0,0-0.1,0.2-0.2,0.6c-0.2,0.3-0.4,0.8-0.6,1.2c-0.2,0.4-0.5,0.9-0.7,1.2
			c-0.2,0.3-0.3,0.6-0.3,0.6c-1,1.4-3,1.8-4.4,0.8c-0.3-0.2-0.6-0.5-0.8-0.8c0,0-0.2-0.2-0.3-0.6c-0.2-0.3-0.4-0.8-0.7-1.2
			c-0.2-0.4-0.4-0.9-0.6-1.2c-0.2-0.3-0.2-0.6-0.2-0.6c-1-2.5,0.2-5.2,2.7-6.2c2.5-1,5.2,0.2,6.2,2.7
			C19.9,370,19.9,371.3,19.5,372.4z"/>
	</g>
	<g>
		<linearGradient id="SVGID_1_" gradientUnits="userSpaceOnUse" x1="9.9893" y1="358.9258" x2="20.0088" y2="358.9258">
			<stop  offset="0.1547" style="stop-color:#282827"/>
			<stop  offset="1" style="stop-color:#1E1E1E"/>
		</linearGradient>
		<rect x="10" y="357.9" fill="url(#SVGID_1_)" width="10" height="2"/>
	</g>
	<g>
		<linearGradient id="SVGID_2_" gradientUnits="userSpaceOnUse" x1="12.2158" y1="143.4646" x2="17.7822" y2="143.4646">
			<stop  offset="0.1547" style="stop-color:#282827"/>
			<stop  offset="1" style="stop-color:#1E1E1E"/>
		</linearGradient>
		<rect x="12.2" y="0" fill="url(#SVGID_2_)" width="5.6" height="286.9"/>
	</g>
	<g>
		<linearGradient id="SVGID_3_" gradientUnits="userSpaceOnUse" x1="7.2061" y1="294.8259" x2="22.792" y2="294.8259">
			<stop  offset="0.1547" style="stop-color:#282827"/>
			<stop  offset="1" style="stop-color:#1E1E1E"/>
		</linearGradient>
		<path fill="url(#SVGID_3_)" d="M15,310.5c-4.3,0-7.8-3.5-7.8-7.8v-15.8c0-4.3,3.5-7.8,7.8-7.8c4.3,0,7.8,3.5,7.8,7.8v15.8
			C22.8,307,19.3,310.5,15,310.5z"/>
	</g>
	<g>
		<linearGradient id="SVGID_4_" gradientUnits="userSpaceOnUse" x1="7.2061" y1="311.0835" x2="22.792" y2="311.0835">
			<stop  offset="0.1547" style="stop-color:#282827"/>
			<stop  offset="1" style="stop-color:#1E1E1E"/>
		</linearGradient>
		<rect x="7.2" y="300.2" fill="url(#SVGID_4_)" width="15.6" height="21.8"/>
	</g>
	<g>
		<g>
			<linearGradient id="SVGID_5_" gradientUnits="userSpaceOnUse" x1="6.0928" y1="296.4846" x2="23.9072" y2="296.4846">
				<stop  offset="0.1547" style="stop-color:#282827"/>
				<stop  offset="1" style="stop-color:#1E1E1E"/>
			</linearGradient>
			<rect x="6.1" y="295.4" fill="url(#SVGID_5_)" width="17.8" height="2.2"/>
		</g>
		<g>
			<linearGradient id="SVGID_6_" gradientUnits="userSpaceOnUse" x1="6.0928" y1="299.8247" x2="23.9072" y2="299.8247">
				<stop  offset="0.1547" style="stop-color:#282827"/>
				<stop  offset="1" style="stop-color:#1E1E1E"/>
			</linearGradient>
			<rect x="6.1" y="298.7" fill="url(#SVGID_6_)" width="17.8" height="2.2"/>
		</g>
		<g>
			<linearGradient id="SVGID_7_" gradientUnits="userSpaceOnUse" x1="6.0928" y1="303.1645" x2="23.9072" y2="303.1645">
				<stop  offset="0.1547" style="stop-color:#282827"/>
				<stop  offset="1" style="stop-color:#1E1E1E"/>
			</linearGradient>
			<rect x="6.1" y="302.1" fill="url(#SVGID_7_)" width="17.8" height="2.2"/>
		</g>
		<g>
			<linearGradient id="SVGID_8_" gradientUnits="userSpaceOnUse" x1="6.0928" y1="306.5046" x2="23.9072" y2="306.5046">
				<stop  offset="0.1547" style="stop-color:#282827"/>
				<stop  offset="1" style="stop-color:#1E1E1E"/>
			</linearGradient>
			<rect x="6.1" y="305.4" fill="url(#SVGID_8_)" width="17.8" height="2.2"/>
		</g>
		<g>
			<linearGradient id="SVGID_9_" gradientUnits="userSpaceOnUse" x1="6.0928" y1="309.8447" x2="23.9072" y2="309.8447">
				<stop  offset="0.1547" style="stop-color:#282827"/>
				<stop  offset="1" style="stop-color:#1E1E1E"/>
			</linearGradient>
			<rect x="6.1" y="308.7" fill="url(#SVGID_9_)" width="17.8" height="2.2"/>
		</g>
	</g>
</g>
</svg>
