<?xml version="1.0" encoding="utf-8"?>
<!-- Generator: Adobe Illustrator 18.0.0, SVG Export Plug-In . SVG Version: 6.00 Build 0)  -->
<!DOCTYPE svg PUBLIC "-//W3C//DTD SVG 1.1//EN" "http://www.w3.org/Graphics/SVG/1.1/DTD/svg11.dtd">
<svg version="1.1" id="Layer_1" xmlns="http://www.w3.org/2000/svg" xmlns:xlink="http://www.w3.org/1999/xlink" x="0px" y="0px"
	 viewBox="0 0 150 50" enable-background="new 0 0 150 50" xml:space="preserve">
<path fill="#231F20" d="M27,38.8h-4.7v-3.3c-2,2.4-4.7,3.6-8.1,3.6c-2.5,0-4.7-0.7-6.3-2.2c-1.7-1.4-2.5-3.4-2.5-5.8S6.2,27,8,25.8
	c1.8-1.2,4.2-1.8,7.2-1.8h6.7v-0.9c0-3.2-1.8-4.9-5.4-4.9c-2.3,0-4.6,0.8-7.1,2.5l-2.3-3.2c3-2.4,6.3-3.5,10.1-3.5
	c2.9,0,5.2,0.7,7.1,2.2c1.8,1.5,2.7,3.7,2.7,6.9V38.8z M21.8,29.7v-2.1h-5.8c-3.7,0-5.6,1.2-5.6,3.5c0,1.2,0.5,2.1,1.4,2.7
	s2.2,0.9,3.8,0.9s3.1-0.5,4.3-1.4C21.2,32.5,21.8,31.2,21.8,29.7z"/>
<path fill="#231F20" d="M47.3,13.9c3.3,0,6.1,1.1,8.4,3.4c2.3,2.3,3.5,5.3,3.5,9.1c0,3.8-1.2,6.8-3.5,9.2c-2.3,2.4-5,3.5-8.1,3.5
	s-5.9-1.3-8.3-4v12.6h-5.2V14.3h5.2v4.3C41.4,15.5,44,13.9,47.3,13.9z M39.2,26.6c0,2.3,0.7,4.2,2.1,5.7c1.4,1.5,3.1,2.2,5.2,2.2
	c2,0,3.8-0.7,5.3-2.2c1.5-1.5,2.3-3.4,2.3-5.7c0-2.3-0.7-4.3-2.2-5.8c-1.5-1.5-3.2-2.3-5.3-2.3c-2.1,0-3.8,0.8-5.2,2.3
	C39.9,22.3,39.2,24.3,39.2,26.6z"/>
<path fill="#231F20" d="M85.6,35.5c-2.5,2.4-5.5,3.7-9.2,3.7s-6.7-1.2-9.2-3.7c-2.5-2.4-3.7-5.4-3.7-8.9s1.2-6.5,3.7-8.9
	c2.5-2.4,5.5-3.7,9.2-3.7s6.7,1.2,9.2,3.7c2.5,2.4,3.7,5.4,3.7,8.9S88,33.1,85.6,35.5z M70.8,32.3c1.5,1.5,3.3,2.2,5.5,2.2
	s4.1-0.7,5.5-2.2c1.5-1.5,2.2-3.4,2.2-5.8s-0.7-4.3-2.2-5.8c-1.5-1.5-3.3-2.2-5.5-2.2s-4.1,0.7-5.5,2.2c-1.5,1.5-2.2,3.4-2.2,5.8
	S69.4,30.8,70.8,32.3z"/>
<path fill="#231F20" d="M100.2,38.8h-5.2V4.7h5.2V38.8z"/>
<path fill="#231F20" d="M112.8,38.8h-5.2V4.7h5.2V38.8z"/>
<path fill="#231F20" d="M140.8,35.5c-2.5,2.4-5.5,3.7-9.2,3.7s-6.7-1.2-9.2-3.7c-2.5-2.4-3.7-5.4-3.7-8.9s1.2-6.5,3.7-8.9
	s5.5-3.7,9.2-3.7s6.7,1.2,9.2,3.7c2.5,2.4,3.7,5.4,3.7,8.9S143.2,33.1,140.8,35.5z M126,32.3c1.5,1.5,3.3,2.2,5.5,2.2
	s4.1-0.7,5.5-2.2c1.5-1.5,2.2-3.4,2.2-5.8s-0.7-4.3-2.2-5.8c-1.5-1.5-3.3-2.2-5.5-2.2s-4.1,0.7-5.5,2.2c-1.5,1.5-2.2,3.4-2.2,5.8
	S124.6,30.8,126,32.3z"/>
</svg>
